PathFileType	4	(X/Y/Z)	/Users/itak/Documents/Research/Walk-IL/dataset/trc/00055_00006.trc
DataRate	CameraRate	NumFrames	NumMarkers	Units	OrigDataRate	OrigDataStartFrame	OrigNumFrames
100.000000	100.000000	4	53	mm	100.000000	121	485
Frame#	Time	RPSI			LPSI			L3			STRN			T10			C7			CLAV			RBAK			LBAK			LSHO			LUPA			LAEL			LAOL			LWTS			LWPS			LFRA			LHPS			LHTS			RSHO			RUPA			RAEL			RAOL			RWTS			RWPS			RFRA			RIFD			RHTS			RHPS			RBHD			LFHD			RFHD			LBHD			LHIP			RHIP			RASI			LASI			LKNE			LTHI			LANK			LTIP			LTOE			LMT1			LMT5			LHEE			RKNE			RTHI			RANK			RTIP			RTOE			RMT1			RMT5			RHEE			LIFD			
		X1	Y1	Z1	X2	Y2	Z2	X3	Y3	Z3	X4	Y4	Z4	X5	Y5	Z5	X6	Y6	Z6	X7	Y7	Z7	X8	Y8	Z8	X9	Y9	Z9	X10	Y10	Z10	X11	Y11	Z11	X12	Y12	Z12	X13	Y13	Z13	X14	Y14	Z14	X15	Y15	Z15	X16	Y16	Z16	X17	Y17	Z17	X18	Y18	Z18	X19	Y19	Z19	X20	Y20	Z20	X21	Y21	Z21	X22	Y22	Z22	X23	Y23	Z23	X24	Y24	Z24	X25	Y25	Z25	X26	Y26	Z26	X27	Y27	Z27	X28	Y28	Z28	X29	Y29	Z29	X30	Y30	Z30	X31	Y31	Z31	X32	Y32	Z32	X33	Y33	Z33	X34	Y34	Z34	X35	Y35	Z35	X36	Y36	Z36	X37	Y37	Z37	X38	Y38	Z38	X39	Y39	Z39	X40	Y40	Z40	X41	Y41	Z41	X42	Y42	Z42	X43	Y43	Z43	X44	Y44	Z44	X45	Y45	Z45	X46	Y46	Z46	X47	Y47	Z47	X48	Y48	Z48	X49	Y49	Z49	X50	Y50	Z50	X51	Y51	Z51	X52	Y52	Z52	X53	Y53	Z53	

122	1.21	940.0330200195312	1027.038208007812	-184.62109375	926.7368774414062	1019.033447265625	-360.1205444335938	937.5194091796875	1078.007080078125	-280.0400085449219	1184.786987304688	1272.494506835938	-280.4457702636719	917.7863159179688	1212.719970703125	-286.2937316894531	978.3003540039062	1479.1083984375	-291.0978393554688	1155.903198242188	1387.043579101562	-284.6610107421875	910.41015625	1342.890014648438	-215.5881805419922	957.8318481445312	1440.27099609375	-392.1814880371094	1063.780639648438	1441.883178710938	-461.7202758789062	1048.376220703125	1314.994995117188	-538.7737426757812	1071.504028320312	1100.750732421875	-559.2943725585938	1009.760070800781	1084.130126953125	-475.0318298339844	1175.579223632812	868.353271484375	-493.8300476074219	1117.675170898438	852.3748779296875	-552.8718872070312	1096.78173828125	992.5426025390625	-565.9266967773438	1155.879638671875	773.3810424804688	-546.6142578125	1203.483032226562	788.0377807617188	-495.2642211914062	1038.641723632812	1442.6142578125	-113.2984085083008	1025.55859375	1373.8642578125	-50.15333938598633	994.1671752929688	1110.721557617188	-16.05388450622559	1015.947570800781	1085.996459960938	-109.9611434936523	1143.089477539062	861.5379638671875	-44.71060943603516	1072.515380859375	845.6644287109375	3.691212177276611	1008.493774414062	1030.162719726562	-5.804008007049561	1152.509765625	672.391845703125	-59.11315536499023	1167.451049804688	758.3255615234375	-43.42633438110352	1109.11279296875	755.1111450195312	6.55905294418335	1031.624389648438	1655.474365234375	-360.4565734863281	1187.988891601562	1686.681518554688	-213.7373046875	1205.964233398438	1687.697143554688	-337.849609375	1020.140930175781	1647.034057617188	-223.6651916503906	1027.362915039062	954.1255493164062	-452.1693115234375	1005.020446777344	952.8004150390625	-108.636604309082	1128.909057617188	969.3067626953125	-130.8510131835938	1141.812377929688	961.115478515625	-398.6534118652344	1101.500854492188	490.0481567382812	-407.2587585449219	1070.400024414062	630.5465698242188	-443.3885803222656	979.8243408203125	39.34688949584961	-434.1804504394531	1034.644897460938	253.7357482910156	-435.1932983398438	1185.274536132812	28.62392616271973	-428.1917724609375	1135.775512695312	31.00527763366699	-374.0099792480469	1082.05517578125	27.6899471282959	-473.1427917480469	927.2020874023438	38.52008438110352	-359.3507690429688	1087.515869140625	507.5948486328125	-136.9297180175781	1086.595581054688	778.422119140625	-101.4914627075195	979.5222778320312	35.39946365356445	-155.3822784423828	1061.528076171875	384.0328979492188	-136.5904846191406	1198.92529296875	27.14284324645996	-179.0991821289062	1139.841796875	32.91318511962891	-221.8723602294922	1104.104370117188	36.54979705810547	-132.0421142578125	936.2110595703125	37.53104400634766	-214.3568572998047	1196.317993164062	685.210205078125	-468.5525817871094	
123	1.22	938.6422119140625	1026.893920898438	-183.6787872314453	924.84765625	1018.765869140625	-359.1132507324219	935.5073852539062	1078.47265625	-278.966064453125	1183.865966796875	1272.156127929688	-279.3295593261719	916.4998779296875	1213.346435546875	-284.9354858398438	978.0748901367188	1479.451049804688	-289.7205505371094	1155.37841796875	1386.854736328125	-283.5671081542969	909.7865600585938	1343.51171875	-214.1436767578125	957.2642211914062	1440.716186523438	-390.7690734863281	1063.133666992188	1441.95166015625	-460.4113159179688	1047.323120117188	1315.249633789062	-537.4736328125	1070.030883789062	1101.023193359375	-558.5501708984375	1008.388305664062	1084.341430664062	-474.2882995605469	1174.809204101562	869.0769653320312	-492.8340454101562	1116.856689453125	852.7335205078125	-551.741943359375	1095.531616210938	992.8140258789062	-565.0811767578125	1155.389526367188	773.8815307617188	-545.3095092773438	1203.039794921875	788.8787231445312	-494.1109008789062	1038.545654296875	1442.76611328125	-112.0468368530273	1025.40234375	1374.055908203125	-48.83672332763672	993.3353271484375	1110.91796875	-14.62343120574951	1014.641418457031	1086.213012695312	-108.5800399780273	1142.140991210938	861.60888671875	-44.24055099487305	1071.825561523438	845.7294311523438	4.528789520263672	1007.815063476562	1030.308471679688	-4.411994457244873	1151.216064453125	672.490234375	-58.98246002197266	1166.406616210938	758.3541870117188	-43.22947692871094	1108.295166015625	755.0532836914062	6.99465799331665	1031.452758789062	1655.400634765625	-359.3523559570312	1188.046875	1686.638793945312	-212.9237823486328	1205.8876953125	1687.5654296875	-337.0307312011719	1020.118591308594	1647.123046875	-222.5595397949219	1025.142578125	954.3843994140625	-451.53515625	1002.937927246094	952.669677734375	-107.6331176757812	1126.777709960938	969.2255249023438	-129.9290924072266	1139.739868164062	961.2971801757812	-397.646240234375	1103.068969726562	490.4754028320312	-406.4657897949219	1071.122924804688	630.6007690429688	-442.6380004882812	979.8952026367188	39.54853439331055	-434.1444702148438	1035.673217773438	253.7476196289062	-434.7887268066406	1185.372436523438	28.53159141540527	-428.1815795898438	1135.934204101562	30.9876766204834	-374.0812072753906	1082.109497070312	27.69406700134277	-473.1227111816406	927.3496704101562	38.82227325439453	-359.3279418945312	1088.11181640625	507.6782836914062	-136.44921875	1085.440185546875	778.812744140625	-101.380012512207	979.5797729492188	35.43962478637695	-155.4753265380859	1062.006591796875	383.8766479492188	-136.2089233398438	1198.9775390625	27.14944076538086	-179.0408172607422	1139.894775390625	32.88348388671875	-221.8473510742188	1104.152465820312	36.49811172485352	-132.0167541503906	936.32080078125	37.61989974975586	-214.4658355712891	1196.181640625	686.1036987304688	-467.1782531738281	
124	1.23	937.2936401367188	1026.788818359375	-182.6692352294922	922.7598266601562	1018.611450195312	-358.0715942382812	933.4693603515625	1078.982055664062	-277.8129272460938	1182.92236328125	1271.777099609375	-278.1793518066406	915.1946411132812	1214.028442382812	-283.4661254882812	977.9008178710938	1479.824462890625	-288.2415161132812	1154.871826171875	1386.627807617188	-282.4181518554688	909.1932983398438	1344.1640625	-212.5794830322266	956.6985473632812	1441.199951171875	-389.25146484375	1062.467163085938	1442.030029296875	-459.0284423828125	1046.187866210938	1315.523071289062	-536.1072387695312	1068.42822265625	1101.325561523438	-557.7713012695312	1006.889465332031	1084.589233398438	-473.4779663085938	1173.896484375	869.790771484375	-491.8741455078125	1115.858642578125	853.1033325195312	-550.6229858398438	1094.140380859375	993.114990234375	-564.2223510742188	1154.739135742188	774.3934326171875	-544.0401000976562	1202.448120117188	789.7118530273438	-493.0232849121094	1038.527587890625	1442.915771484375	-110.71728515625	1025.318603515625	1374.261108398438	-47.43230056762695	992.5313720703125	1111.111572265625	-13.09962844848633	1013.275817871094	1086.445678710938	-107.1257247924805	1141.158813476562	861.671875	-43.78271484375	1071.124267578125	845.7721557617188	5.379934787750244	1007.142578125	1030.451416015625	-2.949803829193115	1149.8916015625	672.5880737304688	-58.92257308959961	1165.3388671875	758.3797607421875	-43.07840728759766	1107.459594726562	754.9794921875	7.402040958404541	1031.285766601562	1655.308227539062	-358.1997680664062	1188.13671875	1686.628784179688	-212.0884094238281	1205.821899414062	1687.454345703125	-336.2146301269531	1020.154357910156	1647.204833984375	-221.3893432617188	1022.797302246094	954.6810302734375	-450.8363342285156	1000.708984375	952.5484619140625	-106.6217346191406	1124.517211914062	969.071533203125	-129.0176391601562	1137.475708007812	961.4818725585938	-396.6495666503906	1104.579833984375	491.0084533691406	-405.6632080078125	1071.754516601562	630.7030639648438	-441.9215393066406	980.0027465820312	39.82406616210938	-434.1153564453125	1036.6884765625	253.8538818359375	-434.403564453125	1185.467041015625	28.44158935546875	-428.1852722167969	1136.117919921875	30.98955345153809	-374.1741943359375	1082.1787109375	27.70335006713867	-473.1206359863281	927.5267944335938	39.18939971923828	-359.3179931640625	1088.576782226562	507.7787170410156	-135.9149932861328	1084.304443359375	779.172607421875	-101.4036636352539	979.659912109375	35.48596954345703	-155.5712127685547	1062.41259765625	383.7494201660156	-135.8077697753906	1199.03466796875	27.14834022521973	-178.9618988037109	1139.94580078125	32.85707855224609	-221.8231658935547	1104.207153320312	36.43390655517578	-131.9854736328125	936.4406127929688	37.71574020385742	-214.5788726806641	1195.896728515625	686.9903564453125	-465.8711853027344	
125	1.24	936.01806640625	1026.739379882812	-181.5807342529297	920.4603881835938	1018.595947265625	-356.9861755371094	931.392578125	1079.536499023438	-276.5758361816406	1181.960815429688	1271.36767578125	-277.0082702636719	913.888427734375	1214.769287109375	-281.8840637207031	977.7741088867188	1480.230224609375	-286.6659545898438	1154.382934570312	1386.367919921875	-281.2213439941406	908.64111328125	1344.84912109375	-210.8930511474609	956.1412963867188	1441.7255859375	-387.6341857910156	1061.78759765625	1442.12646484375	-457.5787658691406	1044.977172851562	1315.817504882812	-534.6756591796875	1066.69873046875	1101.660400390625	-556.94921875	1005.274169921875	1084.875610351562	-472.5938415527344	1172.837524414062	870.49365234375	-490.9552001953125	1114.672729492188	853.4806518554688	-549.5138549804688	1092.601806640625	993.446044921875	-563.3475952148438	1153.911499023438	774.9155883789062	-542.81689453125	1201.69677734375	790.5332641601562	-492.010986328125	1038.592407226562	1443.067749023438	-109.3118667602539	1025.319946289062	1374.483642578125	-45.93929290771484	991.7767944335938	1111.30615234375	-11.483323097229	1011.909484863281	1086.688842773438	-105.5957260131836	1140.142700195312	861.7321166992188	-43.33349609375	1070.403198242188	845.7982177734375	6.237205982208252	1006.475646972656	1030.59423828125	-1.427187204360962	1148.540649414062	672.6911010742188	-58.91796493530273	1164.242919921875	758.4072265625	-42.96728134155273	1106.601928710938	754.9021606445312	7.786459922790527	1031.122192382812	1655.203979492188	-357.0024719238281	1188.2451171875	1686.648315429688	-211.2212066650391	1205.754760742188	1687.368286132812	-335.3993530273438	1020.246520996094	1647.276977539062	-220.1595916748047	1020.276245117188	955.0219116210938	-450.0703735351562	998.3616333007812	952.44384765625	-105.607048034668	1122.1376953125	968.8416748046875	-128.1292572021484	1134.998657226562	961.671142578125	-395.6827392578125	1106.015869140625	491.6703491210938	-404.867431640625	1072.259521484375	630.8790283203125	-441.2549133300781	980.1578979492188	40.1804084777832	-434.101318359375	1037.681762695312	254.0721435546875	-434.0403442382812	1185.552978515625	28.36936378479004	-428.20263671875	1136.328247070312	31.02104377746582	-374.2911071777344	1082.267822265625	27.72274589538574	-473.1429748535156	927.7406005859375	39.64216995239258	-359.3301391601562	1088.866333007812	507.9031677246094	-135.3440246582031	1083.206909179688	779.4418334960938	-101.5438613891602	979.7686157226562	35.54063034057617	-155.6699676513672	1062.7509765625	383.654052734375	-135.3958587646484	1199.09619140625	27.14053535461426	-178.8701324462891	1139.993774414062	32.83409881591797	-221.8030853271484	1104.271728515625	36.36716079711914	-131.9589996337891	936.5664672851562	37.81518936157227	-214.6941528320312	1195.452270507812	687.8667602539062	-464.6412658691406	
